G75*
%MOIN*%
%OFA0B0*%
%FSLAX25Y25*%
%IPPOS*%
%LPD*%
%AMOC8*
5,1,8,0,0,1.08239X$1,22.5*
%
%ADD10R,0.06000X0.06000*%
%ADD11R,0.05918X0.07099*%
%ADD12R,0.07099X0.05918*%
%ADD13C,0.02965*%
%ADD14R,0.07887X0.07493*%
%ADD15R,0.09461X0.03162*%
%ADD16R,0.04343X0.03162*%
%ADD17R,0.06706X0.05918*%
%ADD18R,0.05918X0.06706*%
%ADD19R,0.04300X0.03900*%
%ADD20OC8,0.07100*%
%ADD21OC8,0.07099*%
D10*
X0056800Y0094800D03*
D11*
X0052863Y0080800D03*
X0045737Y0080800D03*
X0037863Y0080800D03*
X0060737Y0080800D03*
D12*
X0078800Y0046737D03*
X0086800Y0046737D03*
X0086800Y0038863D03*
X0078800Y0038863D03*
X0141800Y0062863D03*
X0141800Y0070737D03*
X0191800Y0070737D03*
X0191800Y0062863D03*
D13*
X0064702Y0141127D03*
X0048954Y0141127D03*
D14*
X0071229Y0068800D03*
X0071229Y0057800D03*
X0087371Y0057800D03*
X0087371Y0068800D03*
X0150729Y0036800D03*
X0166871Y0036800D03*
D15*
X0067036Y0087300D03*
X0067036Y0092300D03*
X0067036Y0097300D03*
X0067036Y0102300D03*
X0046564Y0102300D03*
X0046564Y0097300D03*
X0046564Y0092300D03*
X0046564Y0087300D03*
D16*
X0172272Y0070540D03*
X0172272Y0066800D03*
X0172272Y0063060D03*
X0181328Y0063060D03*
X0181328Y0066800D03*
X0181328Y0070540D03*
D17*
X0161800Y0070540D03*
X0161800Y0063060D03*
X0151800Y0063060D03*
X0151800Y0070540D03*
X0084300Y0085060D03*
X0084300Y0092540D03*
X0075800Y0091060D03*
X0075800Y0098540D03*
X0037800Y0098540D03*
X0037800Y0091060D03*
D18*
X0173060Y0081800D03*
X0180540Y0081800D03*
X0180540Y0051800D03*
X0173060Y0051800D03*
D19*
X0078300Y0077600D03*
X0078300Y0085200D03*
X0070300Y0081400D03*
D20*
X0019800Y0035300D03*
X0012300Y0051800D03*
X0012300Y0061800D03*
X0021800Y0076800D03*
X0052800Y0056800D03*
X0060800Y0056800D03*
X0100800Y0051800D03*
X0122800Y0051800D03*
X0122800Y0061800D03*
X0166800Y0100800D03*
X0210800Y0061800D03*
X0056800Y0012800D03*
D21*
X0019800Y0044300D03*
X0021800Y0066800D03*
X0100800Y0061800D03*
X0210800Y0051800D03*
M02*
