%
M48
M72
T01C0.0118
T02C0.0217
T03C0.0315
T04C0.0320
%
T01
X4180Y3180
X5680Y3680
X7680Y1680
X9680Y3680
X13506Y6306
X15180Y5680
X17680Y3680
X15680Y2580
X14680Y2580
X19869Y4980
X19180Y7680
X19180Y8180
X8180Y9780
X7430Y8130
X5830Y9330
X5830Y9630
X5530Y9630
X5530Y9330
X5680Y8730
X5680Y7480
X4930Y7480
X3280Y8080
X5280Y9980
X4180Y13880
X7180Y13880
T02
X6470Y14113
X4895Y14113
T03
X2180Y6680
X1980Y4430
X10080Y6180
X21080Y5180
T04
X21080Y6180
X16680Y10080
X12280Y6180
X12280Y5180
X10080Y5180
X6080Y5680
X5280Y5680
X2180Y7680
X1230Y6180
X1230Y5180
X1980Y3530
X5680Y1280
M30
