G75*
%MOIN*%
%OFA0B0*%
%FSLAX25Y25*%
%IPPOS*%
%LPD*%
%AMOC8*
5,1,8,0,0,1.08239X$1,22.5*
%
%ADD10C,0.00800*%
%ADD11C,0.00300*%
%ADD12C,0.00200*%
%ADD13C,0.00000*%
%ADD14C,0.01000*%
%ADD15R,0.01181X0.06299*%
%ADD16C,0.00400*%
%ADD17C,0.00600*%
%ADD18C,0.00787*%
D10*
X0076938Y0055044D02*
X0081269Y0057800D01*
X0076938Y0060556D01*
X0076938Y0055044D01*
X0076938Y0055203D02*
X0077187Y0055203D01*
X0076938Y0056001D02*
X0078442Y0056001D01*
X0079697Y0056800D02*
X0076938Y0056800D01*
X0076938Y0057599D02*
X0080952Y0057599D01*
X0080330Y0058397D02*
X0076938Y0058397D01*
X0076938Y0059196D02*
X0079076Y0059196D01*
X0077821Y0059994D02*
X0076938Y0059994D01*
X0076938Y0066044D02*
X0081269Y0068800D01*
X0076938Y0071556D01*
X0076938Y0066044D01*
X0076938Y0066382D02*
X0077469Y0066382D01*
X0076938Y0067181D02*
X0078724Y0067181D01*
X0079979Y0067979D02*
X0076938Y0067979D01*
X0076938Y0068778D02*
X0081233Y0068778D01*
X0080049Y0069576D02*
X0076938Y0069576D01*
X0076938Y0070375D02*
X0078794Y0070375D01*
X0077539Y0071173D02*
X0076938Y0071173D01*
X0061400Y0102200D02*
X0059865Y0102200D01*
X0059865Y0103735D01*
X0061400Y0103735D01*
X0061400Y0102200D01*
X0156831Y0036800D02*
X0161162Y0039556D01*
X0161162Y0034044D01*
X0156831Y0036800D01*
X0156890Y0036837D02*
X0161162Y0036837D01*
X0161162Y0036039D02*
X0158028Y0036039D01*
X0159283Y0035240D02*
X0161162Y0035240D01*
X0161162Y0034442D02*
X0160537Y0034442D01*
X0161162Y0037636D02*
X0158145Y0037636D01*
X0159400Y0038434D02*
X0161162Y0038434D01*
X0161162Y0039233D02*
X0160654Y0039233D01*
D11*
X0041270Y0034250D02*
X0040653Y0034250D01*
X0039419Y0034250D02*
X0039419Y0033633D01*
X0039419Y0034250D02*
X0036950Y0034250D01*
X0036950Y0033633D02*
X0036950Y0034868D01*
X0037567Y0036089D02*
X0036950Y0036706D01*
X0036950Y0038557D01*
X0036333Y0038557D02*
X0039419Y0038557D01*
X0039419Y0036706D01*
X0038802Y0036089D01*
X0037567Y0036089D01*
X0035716Y0037323D02*
X0035716Y0037940D01*
X0036333Y0038557D01*
X0036950Y0039772D02*
X0040653Y0039772D01*
X0039419Y0040389D02*
X0039419Y0041623D01*
X0038802Y0042240D01*
X0036950Y0042240D01*
X0037567Y0044072D02*
X0036950Y0044689D01*
X0037567Y0044072D02*
X0040036Y0044072D01*
X0039419Y0043455D02*
X0039419Y0044689D01*
X0036333Y0045910D02*
X0036333Y0048379D01*
X0036950Y0049593D02*
X0036950Y0050828D01*
X0036950Y0050211D02*
X0039419Y0050211D01*
X0039419Y0049593D01*
X0040653Y0050211D02*
X0041270Y0050211D01*
X0039419Y0052049D02*
X0039419Y0053900D01*
X0038802Y0054518D01*
X0036950Y0054518D01*
X0036333Y0055732D02*
X0036333Y0058201D01*
X0036950Y0059415D02*
X0040653Y0059415D01*
X0038802Y0059415D02*
X0038802Y0061884D01*
X0037567Y0063098D02*
X0038184Y0063715D01*
X0038184Y0065567D01*
X0038802Y0065567D02*
X0036950Y0065567D01*
X0036950Y0063715D01*
X0037567Y0063098D01*
X0036950Y0061884D02*
X0040653Y0061884D01*
X0039419Y0063715D02*
X0039419Y0064950D01*
X0038802Y0065567D01*
X0039419Y0066781D02*
X0036950Y0066781D01*
X0039419Y0066781D02*
X0039419Y0068633D01*
X0038802Y0069250D01*
X0036950Y0069250D01*
X0037567Y0070465D02*
X0038802Y0070465D01*
X0039419Y0071082D01*
X0039419Y0072933D01*
X0040653Y0072933D02*
X0036950Y0072933D01*
X0036950Y0071082D01*
X0037567Y0070465D01*
X0036950Y0052049D02*
X0039419Y0052049D01*
X0039419Y0040389D02*
X0038802Y0039772D01*
X0036950Y0032419D02*
X0036950Y0029950D01*
X0040653Y0029950D01*
D12*
X0028102Y0029900D02*
X0025900Y0029900D01*
X0026634Y0029900D02*
X0026634Y0031001D01*
X0027001Y0031368D01*
X0027735Y0031368D01*
X0028102Y0031001D01*
X0028102Y0029900D01*
X0026634Y0030634D02*
X0025900Y0031368D01*
X0026267Y0032110D02*
X0027001Y0032110D01*
X0027368Y0032477D01*
X0027368Y0033211D01*
X0027001Y0033578D01*
X0026634Y0033578D01*
X0026634Y0032110D01*
X0026267Y0032110D02*
X0025900Y0032477D01*
X0025900Y0033211D01*
X0027368Y0034320D02*
X0025900Y0035054D01*
X0027368Y0035788D01*
X0026267Y0036530D02*
X0026267Y0036897D01*
X0025900Y0036897D01*
X0025900Y0036530D01*
X0026267Y0036530D01*
X0025900Y0039844D02*
X0025900Y0041312D01*
X0025900Y0040578D02*
X0028102Y0040578D01*
X0027368Y0039844D01*
X0026267Y0042054D02*
X0026267Y0042421D01*
X0025900Y0042421D01*
X0025900Y0042054D01*
X0026267Y0042054D01*
X0025900Y0043159D02*
X0025900Y0044627D01*
X0025900Y0043893D02*
X0028102Y0043893D01*
X0027368Y0043159D01*
X0029900Y0043158D02*
X0029900Y0043892D01*
X0029900Y0043158D02*
X0030267Y0042791D01*
X0031001Y0042791D01*
X0031368Y0043158D01*
X0031368Y0043892D01*
X0031001Y0044259D01*
X0030634Y0044259D01*
X0030634Y0042791D01*
X0031368Y0042049D02*
X0031368Y0040948D01*
X0031001Y0040581D01*
X0030267Y0040581D01*
X0029900Y0040948D01*
X0029900Y0042049D01*
X0029900Y0039839D02*
X0031368Y0039839D01*
X0031368Y0038371D02*
X0030267Y0038371D01*
X0029900Y0038738D01*
X0029900Y0039839D01*
X0031368Y0037631D02*
X0031368Y0037264D01*
X0030634Y0036530D01*
X0029900Y0036530D02*
X0031368Y0036530D01*
X0031001Y0035788D02*
X0031368Y0035421D01*
X0031368Y0034320D01*
X0032102Y0034320D02*
X0029900Y0034320D01*
X0029900Y0035421D01*
X0030267Y0035788D01*
X0031001Y0035788D01*
X0031368Y0033578D02*
X0031368Y0032477D01*
X0031001Y0032110D01*
X0030267Y0032110D01*
X0029900Y0032477D01*
X0029900Y0033578D01*
X0029900Y0031368D02*
X0029900Y0030267D01*
X0030267Y0029900D01*
X0031001Y0029900D01*
X0031368Y0030267D01*
X0031368Y0031368D01*
X0031735Y0045001D02*
X0030267Y0045001D01*
X0029900Y0045368D01*
X0029900Y0046102D01*
X0030267Y0046469D01*
X0030634Y0046102D02*
X0031368Y0046102D01*
X0031368Y0045368D01*
X0030634Y0045368D01*
X0030634Y0046102D01*
X0031001Y0046469D01*
X0031735Y0046469D01*
X0032102Y0046102D01*
X0032102Y0045368D01*
X0031735Y0045001D01*
X0031001Y0047211D02*
X0030267Y0047211D01*
X0029900Y0047578D01*
X0029900Y0048679D01*
X0029533Y0048679D02*
X0031368Y0048679D01*
X0031368Y0047578D01*
X0031001Y0047211D01*
X0029166Y0047945D02*
X0029166Y0048312D01*
X0029533Y0048679D01*
X0029900Y0049421D02*
X0031368Y0049421D01*
X0031368Y0049788D01*
X0031001Y0050155D01*
X0031368Y0050522D01*
X0031001Y0050889D01*
X0029900Y0050889D01*
X0029900Y0050155D02*
X0031001Y0050155D01*
X0030267Y0051630D02*
X0030634Y0051997D01*
X0030634Y0053098D01*
X0031001Y0053098D02*
X0029900Y0053098D01*
X0029900Y0051997D01*
X0030267Y0051630D01*
X0031368Y0051997D02*
X0031368Y0052731D01*
X0031001Y0053098D01*
X0031368Y0053840D02*
X0031368Y0054207D01*
X0029900Y0054207D01*
X0029900Y0053840D02*
X0029900Y0054574D01*
X0029900Y0055314D02*
X0029900Y0056048D01*
X0029900Y0055681D02*
X0032102Y0055681D01*
X0032102Y0055314D01*
X0032102Y0054207D02*
X0032469Y0054207D01*
X0030267Y0056787D02*
X0030267Y0057154D01*
X0029900Y0057154D01*
X0029900Y0056787D01*
X0030267Y0056787D01*
X0030267Y0057892D02*
X0029900Y0058259D01*
X0029900Y0059360D01*
X0030267Y0060102D02*
X0029900Y0060469D01*
X0029900Y0061203D01*
X0030267Y0061570D01*
X0031001Y0061570D01*
X0031368Y0061203D01*
X0031368Y0060469D01*
X0031001Y0060102D01*
X0030267Y0060102D01*
X0031368Y0059360D02*
X0031368Y0058259D01*
X0031001Y0057892D01*
X0030267Y0057892D01*
X0029900Y0062312D02*
X0031368Y0062312D01*
X0031368Y0062679D01*
X0031001Y0063046D01*
X0031368Y0063412D01*
X0031001Y0063779D01*
X0029900Y0063779D01*
X0029900Y0063046D02*
X0031001Y0063046D01*
X0040085Y0074455D02*
X0041553Y0074455D01*
X0040819Y0074455D02*
X0040819Y0076657D01*
X0041553Y0075923D01*
X0042295Y0076290D02*
X0042662Y0076657D01*
X0043396Y0076657D01*
X0043763Y0076290D01*
X0043763Y0074822D01*
X0043396Y0074455D01*
X0042662Y0074455D01*
X0042295Y0074822D01*
X0056959Y0084345D02*
X0058427Y0084345D01*
X0056959Y0085813D01*
X0056959Y0086180D01*
X0057326Y0086547D01*
X0058060Y0086547D01*
X0058427Y0086180D01*
X0059169Y0086180D02*
X0059536Y0086547D01*
X0060270Y0086547D01*
X0060637Y0086180D01*
X0060637Y0084712D01*
X0060270Y0084345D01*
X0059536Y0084345D01*
X0059169Y0084712D01*
X0080022Y0097767D02*
X0080389Y0097400D01*
X0081123Y0097400D01*
X0081490Y0097767D01*
X0082232Y0097400D02*
X0082966Y0098134D01*
X0082599Y0098134D02*
X0083700Y0098134D01*
X0083700Y0097400D02*
X0083700Y0099602D01*
X0082599Y0099602D01*
X0082232Y0099235D01*
X0082232Y0098501D01*
X0082599Y0098134D01*
X0081490Y0099235D02*
X0081123Y0099602D01*
X0080389Y0099602D01*
X0080022Y0099235D01*
X0080022Y0098868D01*
X0080389Y0098501D01*
X0080022Y0098134D01*
X0080022Y0097767D01*
X0080389Y0098501D02*
X0080756Y0098501D01*
X0088889Y0090602D02*
X0089990Y0089501D01*
X0088522Y0089501D01*
X0088889Y0088400D02*
X0088889Y0090602D01*
X0090732Y0090235D02*
X0090732Y0089501D01*
X0091099Y0089134D01*
X0092200Y0089134D01*
X0091466Y0089134D02*
X0090732Y0088400D01*
X0092200Y0088400D02*
X0092200Y0090602D01*
X0091099Y0090602D01*
X0090732Y0090235D01*
X0083202Y0078424D02*
X0081000Y0078424D01*
X0081000Y0077690D02*
X0081000Y0079158D01*
X0082468Y0077690D02*
X0083202Y0078424D01*
X0082835Y0076948D02*
X0081367Y0076948D01*
X0081000Y0076581D01*
X0081000Y0075847D01*
X0081367Y0075480D01*
X0082835Y0075480D01*
X0083202Y0075847D01*
X0083202Y0076581D01*
X0082835Y0076948D01*
X0081734Y0076214D02*
X0081000Y0076948D01*
X0059200Y0102400D02*
X0058466Y0102400D01*
X0058833Y0102400D02*
X0058833Y0104602D01*
X0059200Y0104602D02*
X0058466Y0104602D01*
X0057727Y0104235D02*
X0057727Y0102767D01*
X0057360Y0102400D01*
X0056626Y0102400D01*
X0056259Y0102767D01*
X0055517Y0102400D02*
X0054049Y0102400D01*
X0054783Y0102400D02*
X0054783Y0104602D01*
X0055517Y0103868D01*
X0056259Y0104235D02*
X0056626Y0104602D01*
X0057360Y0104602D01*
X0057727Y0104235D01*
X0032700Y0096602D02*
X0032700Y0094400D01*
X0032700Y0095134D02*
X0031599Y0095134D01*
X0031232Y0095501D01*
X0031232Y0096235D01*
X0031599Y0096602D01*
X0032700Y0096602D01*
X0031966Y0095134D02*
X0031232Y0094400D01*
X0030490Y0094400D02*
X0029022Y0095868D01*
X0029022Y0096235D01*
X0029389Y0096602D01*
X0030123Y0096602D01*
X0030490Y0096235D01*
X0030490Y0094400D02*
X0029022Y0094400D01*
X0070944Y0044039D02*
X0072045Y0042938D01*
X0070577Y0042938D01*
X0070944Y0041837D02*
X0070944Y0044039D01*
X0072787Y0043672D02*
X0073154Y0044039D01*
X0073888Y0044039D01*
X0074255Y0043672D01*
X0074255Y0042204D01*
X0073888Y0041837D01*
X0073154Y0041837D01*
X0072787Y0042204D01*
X0091055Y0041518D02*
X0091422Y0041885D01*
X0091055Y0041518D02*
X0091055Y0040784D01*
X0091422Y0040417D01*
X0092890Y0040417D01*
X0093257Y0040784D01*
X0093257Y0041518D01*
X0092890Y0041885D01*
X0092890Y0042627D02*
X0093257Y0042994D01*
X0093257Y0043728D01*
X0092890Y0044095D01*
X0092523Y0044095D01*
X0092156Y0043728D01*
X0091789Y0044095D01*
X0091422Y0044095D01*
X0091055Y0043728D01*
X0091055Y0042994D01*
X0091422Y0042627D01*
X0092156Y0043361D02*
X0092156Y0043728D01*
X0134945Y0064910D02*
X0134945Y0065644D01*
X0135312Y0066011D01*
X0135312Y0066753D02*
X0134945Y0066753D01*
X0135312Y0066753D02*
X0136780Y0068221D01*
X0137147Y0068221D01*
X0137147Y0066753D01*
X0136780Y0066011D02*
X0137147Y0065644D01*
X0137147Y0064910D01*
X0136780Y0064543D01*
X0135312Y0064543D01*
X0134945Y0064910D01*
X0150812Y0066400D02*
X0152280Y0066400D01*
X0151546Y0066400D02*
X0151546Y0068602D01*
X0152280Y0067868D01*
X0153022Y0066400D02*
X0154490Y0066400D01*
X0153756Y0066400D02*
X0153756Y0068602D01*
X0154490Y0067868D01*
X0155232Y0068235D02*
X0155232Y0067501D01*
X0155599Y0067134D01*
X0156700Y0067134D01*
X0155966Y0067134D02*
X0155232Y0066400D01*
X0156700Y0066400D02*
X0156700Y0068602D01*
X0155599Y0068602D01*
X0155232Y0068235D01*
X0153102Y0075400D02*
X0150900Y0075400D01*
X0151634Y0075400D02*
X0151634Y0076501D01*
X0152001Y0076868D01*
X0152735Y0076868D01*
X0153102Y0076501D01*
X0153102Y0075400D01*
X0151634Y0076134D02*
X0150900Y0076868D01*
X0150900Y0077610D02*
X0150900Y0079078D01*
X0150900Y0078344D02*
X0153102Y0078344D01*
X0152368Y0077610D01*
X0152735Y0079820D02*
X0153102Y0080187D01*
X0153102Y0080921D01*
X0152735Y0081288D01*
X0152368Y0081288D01*
X0150900Y0079820D01*
X0150900Y0081288D01*
X0175000Y0085480D02*
X0177202Y0085480D01*
X0177202Y0086581D01*
X0176835Y0086948D01*
X0176101Y0086948D01*
X0175734Y0086581D01*
X0175734Y0085480D01*
X0175734Y0086214D02*
X0175000Y0086948D01*
X0175367Y0087690D02*
X0175000Y0088057D01*
X0175000Y0088791D01*
X0175367Y0089158D01*
X0176835Y0089158D01*
X0177202Y0088791D01*
X0177202Y0088057D01*
X0176835Y0087690D01*
X0176468Y0087690D01*
X0176101Y0088057D01*
X0176101Y0089158D01*
X0196467Y0068165D02*
X0197201Y0067798D01*
X0197935Y0067064D01*
X0196834Y0067064D01*
X0196467Y0066697D01*
X0196467Y0066330D01*
X0196834Y0065963D01*
X0197568Y0065963D01*
X0197935Y0066330D01*
X0197935Y0067064D01*
X0198677Y0067798D02*
X0199044Y0068165D01*
X0199778Y0068165D01*
X0200145Y0067798D01*
X0200145Y0066330D01*
X0199778Y0065963D01*
X0199044Y0065963D01*
X0198677Y0066330D01*
X0189401Y0063602D02*
X0188667Y0063602D01*
X0189034Y0063602D02*
X0189034Y0061400D01*
X0189401Y0061400D02*
X0188667Y0061400D01*
X0187928Y0061767D02*
X0187561Y0061400D01*
X0186827Y0061400D01*
X0186460Y0061767D01*
X0185718Y0061767D02*
X0185351Y0061400D01*
X0184617Y0061400D01*
X0184250Y0061767D01*
X0184250Y0062134D01*
X0184617Y0062501D01*
X0184984Y0062501D01*
X0184617Y0062501D02*
X0184250Y0062868D01*
X0184250Y0063235D01*
X0184617Y0063602D01*
X0185351Y0063602D01*
X0185718Y0063235D01*
X0186460Y0063235D02*
X0186827Y0063602D01*
X0187561Y0063602D01*
X0187928Y0063235D01*
X0187928Y0061767D01*
X0178235Y0047788D02*
X0176767Y0046320D01*
X0176400Y0046687D01*
X0176400Y0047421D01*
X0176767Y0047788D01*
X0178235Y0047788D01*
X0178602Y0047421D01*
X0178602Y0046687D01*
X0178235Y0046320D01*
X0176767Y0046320D01*
X0176400Y0045578D02*
X0176400Y0044110D01*
X0176400Y0044844D02*
X0178602Y0044844D01*
X0177868Y0044110D01*
X0178235Y0043368D02*
X0177501Y0043368D01*
X0177134Y0043001D01*
X0177134Y0041900D01*
X0177134Y0042634D02*
X0176400Y0043368D01*
X0176400Y0041900D02*
X0178602Y0041900D01*
X0178602Y0043001D01*
X0178235Y0043368D01*
D13*
X0063619Y0141127D02*
X0063621Y0141192D01*
X0063627Y0141258D01*
X0063637Y0141322D01*
X0063650Y0141386D01*
X0063668Y0141449D01*
X0063689Y0141511D01*
X0063714Y0141571D01*
X0063743Y0141630D01*
X0063775Y0141687D01*
X0063811Y0141742D01*
X0063849Y0141795D01*
X0063891Y0141845D01*
X0063936Y0141893D01*
X0063984Y0141938D01*
X0064034Y0141980D01*
X0064087Y0142018D01*
X0064142Y0142054D01*
X0064199Y0142086D01*
X0064258Y0142115D01*
X0064318Y0142140D01*
X0064380Y0142161D01*
X0064443Y0142179D01*
X0064507Y0142192D01*
X0064571Y0142202D01*
X0064637Y0142208D01*
X0064702Y0142210D01*
X0064767Y0142208D01*
X0064833Y0142202D01*
X0064897Y0142192D01*
X0064961Y0142179D01*
X0065024Y0142161D01*
X0065086Y0142140D01*
X0065146Y0142115D01*
X0065205Y0142086D01*
X0065262Y0142054D01*
X0065317Y0142018D01*
X0065370Y0141980D01*
X0065420Y0141938D01*
X0065468Y0141893D01*
X0065513Y0141845D01*
X0065555Y0141795D01*
X0065593Y0141742D01*
X0065629Y0141687D01*
X0065661Y0141630D01*
X0065690Y0141571D01*
X0065715Y0141511D01*
X0065736Y0141449D01*
X0065754Y0141386D01*
X0065767Y0141322D01*
X0065777Y0141258D01*
X0065783Y0141192D01*
X0065785Y0141127D01*
X0065783Y0141062D01*
X0065777Y0140996D01*
X0065767Y0140932D01*
X0065754Y0140868D01*
X0065736Y0140805D01*
X0065715Y0140743D01*
X0065690Y0140683D01*
X0065661Y0140624D01*
X0065629Y0140567D01*
X0065593Y0140512D01*
X0065555Y0140459D01*
X0065513Y0140409D01*
X0065468Y0140361D01*
X0065420Y0140316D01*
X0065370Y0140274D01*
X0065317Y0140236D01*
X0065262Y0140200D01*
X0065205Y0140168D01*
X0065146Y0140139D01*
X0065086Y0140114D01*
X0065024Y0140093D01*
X0064961Y0140075D01*
X0064897Y0140062D01*
X0064833Y0140052D01*
X0064767Y0140046D01*
X0064702Y0140044D01*
X0064637Y0140046D01*
X0064571Y0140052D01*
X0064507Y0140062D01*
X0064443Y0140075D01*
X0064380Y0140093D01*
X0064318Y0140114D01*
X0064258Y0140139D01*
X0064199Y0140168D01*
X0064142Y0140200D01*
X0064087Y0140236D01*
X0064034Y0140274D01*
X0063984Y0140316D01*
X0063936Y0140361D01*
X0063891Y0140409D01*
X0063849Y0140459D01*
X0063811Y0140512D01*
X0063775Y0140567D01*
X0063743Y0140624D01*
X0063714Y0140683D01*
X0063689Y0140743D01*
X0063668Y0140805D01*
X0063650Y0140868D01*
X0063637Y0140932D01*
X0063627Y0140996D01*
X0063621Y0141062D01*
X0063619Y0141127D01*
X0047871Y0141127D02*
X0047873Y0141192D01*
X0047879Y0141258D01*
X0047889Y0141322D01*
X0047902Y0141386D01*
X0047920Y0141449D01*
X0047941Y0141511D01*
X0047966Y0141571D01*
X0047995Y0141630D01*
X0048027Y0141687D01*
X0048063Y0141742D01*
X0048101Y0141795D01*
X0048143Y0141845D01*
X0048188Y0141893D01*
X0048236Y0141938D01*
X0048286Y0141980D01*
X0048339Y0142018D01*
X0048394Y0142054D01*
X0048451Y0142086D01*
X0048510Y0142115D01*
X0048570Y0142140D01*
X0048632Y0142161D01*
X0048695Y0142179D01*
X0048759Y0142192D01*
X0048823Y0142202D01*
X0048889Y0142208D01*
X0048954Y0142210D01*
X0049019Y0142208D01*
X0049085Y0142202D01*
X0049149Y0142192D01*
X0049213Y0142179D01*
X0049276Y0142161D01*
X0049338Y0142140D01*
X0049398Y0142115D01*
X0049457Y0142086D01*
X0049514Y0142054D01*
X0049569Y0142018D01*
X0049622Y0141980D01*
X0049672Y0141938D01*
X0049720Y0141893D01*
X0049765Y0141845D01*
X0049807Y0141795D01*
X0049845Y0141742D01*
X0049881Y0141687D01*
X0049913Y0141630D01*
X0049942Y0141571D01*
X0049967Y0141511D01*
X0049988Y0141449D01*
X0050006Y0141386D01*
X0050019Y0141322D01*
X0050029Y0141258D01*
X0050035Y0141192D01*
X0050037Y0141127D01*
X0050035Y0141062D01*
X0050029Y0140996D01*
X0050019Y0140932D01*
X0050006Y0140868D01*
X0049988Y0140805D01*
X0049967Y0140743D01*
X0049942Y0140683D01*
X0049913Y0140624D01*
X0049881Y0140567D01*
X0049845Y0140512D01*
X0049807Y0140459D01*
X0049765Y0140409D01*
X0049720Y0140361D01*
X0049672Y0140316D01*
X0049622Y0140274D01*
X0049569Y0140236D01*
X0049514Y0140200D01*
X0049457Y0140168D01*
X0049398Y0140139D01*
X0049338Y0140114D01*
X0049276Y0140093D01*
X0049213Y0140075D01*
X0049149Y0140062D01*
X0049085Y0140052D01*
X0049019Y0140046D01*
X0048954Y0140044D01*
X0048889Y0140046D01*
X0048823Y0140052D01*
X0048759Y0140062D01*
X0048695Y0140075D01*
X0048632Y0140093D01*
X0048570Y0140114D01*
X0048510Y0140139D01*
X0048451Y0140168D01*
X0048394Y0140200D01*
X0048339Y0140236D01*
X0048286Y0140274D01*
X0048236Y0140316D01*
X0048188Y0140361D01*
X0048143Y0140409D01*
X0048101Y0140459D01*
X0048063Y0140512D01*
X0048027Y0140567D01*
X0047995Y0140624D01*
X0047966Y0140683D01*
X0047941Y0140743D01*
X0047920Y0140805D01*
X0047902Y0140868D01*
X0047889Y0140932D01*
X0047879Y0140996D01*
X0047873Y0141062D01*
X0047871Y0141127D01*
D14*
X0070245Y0073131D02*
X0088355Y0073131D01*
X0081269Y0068800D02*
X0076938Y0066044D01*
X0076938Y0071556D01*
X0081269Y0068800D01*
X0088355Y0064469D02*
X0070245Y0064469D01*
X0070245Y0062131D02*
X0088355Y0062131D01*
X0081269Y0057800D02*
X0076938Y0055044D01*
X0076938Y0060556D01*
X0081269Y0057800D01*
X0088355Y0053469D02*
X0070245Y0053469D01*
X0149745Y0041131D02*
X0167855Y0041131D01*
X0161162Y0039556D02*
X0156831Y0036800D01*
X0161162Y0034044D01*
X0161162Y0039556D01*
X0167855Y0032469D02*
X0149745Y0032469D01*
D15*
X0156241Y0036800D03*
X0081859Y0057800D03*
X0081859Y0068800D03*
D16*
X0066100Y0072250D02*
X0065099Y0072250D01*
X0064766Y0072584D01*
X0064766Y0073918D01*
X0065099Y0074252D01*
X0066100Y0074252D01*
X0066100Y0072250D01*
X0063890Y0072250D02*
X0062556Y0073584D01*
X0062556Y0073918D01*
X0062889Y0074252D01*
X0063557Y0074252D01*
X0063890Y0073918D01*
X0063890Y0072250D02*
X0062556Y0072250D01*
X0063223Y0063252D02*
X0063223Y0061250D01*
X0063890Y0061250D02*
X0062556Y0061250D01*
X0063890Y0062584D02*
X0063223Y0063252D01*
X0064766Y0062918D02*
X0065099Y0063252D01*
X0066100Y0063252D01*
X0066100Y0061250D01*
X0065099Y0061250D01*
X0064766Y0061584D01*
X0064766Y0062918D01*
X0144000Y0037961D02*
X0144000Y0037293D01*
X0144334Y0036960D01*
X0144334Y0036084D02*
X0145668Y0036084D01*
X0146002Y0035751D01*
X0146002Y0034750D01*
X0144000Y0034750D01*
X0144000Y0035751D01*
X0144334Y0036084D01*
X0145668Y0036960D02*
X0146002Y0037293D01*
X0146002Y0037961D01*
X0145668Y0038294D01*
X0145334Y0038294D01*
X0145001Y0037961D01*
X0144667Y0038294D01*
X0144334Y0038294D01*
X0144000Y0037961D01*
X0145001Y0037961D02*
X0145001Y0037627D01*
D17*
X0173725Y0061198D02*
X0179875Y0061198D01*
X0179875Y0072398D02*
X0173725Y0072398D01*
X0075800Y0075700D02*
X0072800Y0075700D01*
X0072800Y0087100D01*
X0075800Y0087100D01*
X0075800Y0075700D01*
D18*
X0174831Y0062272D03*
M02*
